/* XPM */
static char *bug-buddy[] = {
/* columns rows colors chars-per-pixel */
"32 32 133 2",
"   c #000000",
".  c #080804",
"X  c #0C0C0B",
"o  c #0F100B",
"O  c #10110E",
"+  c #1B1802",
"@  c #141413",
"#  c #171912",
"$  c #191B14",
"%  c #1C1C1B",
"&  c #202217",
"*  c #21221E",
"=  c #24291D",
"-  c #2E370D",
";  c #342B0C",
":  c #242423",
">  c #272825",
",  c #282723",
"<  c #292B25",
"1  c #2B2C2B",
"2  c #2D3024",
"3  c #2E3129",
"4  c #313524",
"5  c #31352A",
"6  c #35392A",
"7  c #3A3D2D",
"8  c #333332",
"9  c #393B35",
"0  c #3A3C39",
"q  c #3E422E",
"w  c #3D4134",
"e  c #3E403B",
"r  c #524408",
"t  c #5E5112",
"y  c #464D29",
"u  c #484326",
"i  c #4A4F26",
"p  c #404530",
"a  c #40443C",
"s  c #454B34",
"d  c #494C35",
"f  c #484B3D",
"g  c #4F582B",
"h  c #4E5436",
"j  c #4D543A",
"k  c #51593D",
"l  c #454545",
"z  c #474A43",
"x  c #494C44",
"c  c #4C4D4B",
"v  c #4A5240",
"b  c #4E5349",
"n  c #4E5940",
"m  c #51544C",
"M  c #565D41",
"N  c #54584F",
"B  c #535353",
"V  c #575B51",
"C  c #595D53",
"Z  c #5E5E5E",
"A  c #5B6244",
"S  c #5A694C",
"D  c #5E6354",
"F  c #62664D",
"G  c #646D4A",
"H  c #646855",
"J  c #6A6E52",
"K  c #6A6D5F",
"L  c #69714E",
"P  c #6E7455",
"I  c #6F715B",
"U  c #717753",
"Y  c #757B55",
"T  c #777F59",
"R  c #646464",
"E  c #696C60",
"W  c #6C6C6C",
"Q  c #797D6F",
"!  c #777777",
"~  c #7C7C7C",
"^  c #7D835C",
"/  c #7E8363",
"(  c #7F8A67",
")  c #999148",
"_  c #919455",
"`  c #858B62",
"'  c #8D946A",
"]  c #849474",
"[  c #969C72",
"{  c #999E79",
"}  c #9DA47A",
"|  c #A2A97D",
" . c #818181",
".. c #979984",
"X. c #929292",
"o. c #9D9D9D",
"O. c #A1A585",
"+. c #A1A488",
"@. c #A0A393",
"#. c #ACB28B",
"$. c #B4B79E",
"%. c #B5B896",
"&. c #B6BA98",
"*. c #B8BB9C",
"=. c #A4A4A4",
"-. c #A8A8A8",
";. c #B3B7A1",
":. c #BBBEA5",
">. c #BBBEAB",
",. c #B4B4B4",
"<. c #BDBDBD",
"1. c #BEC1A7",
"2. c #BFC1A8",
"3. c #C2C5AD",
"4. c #C5CBAC",
"5. c #C5CAB2",
"6. c #C8CCB6",
"7. c #CDCFBB",
"8. c #CED1BC",
"9. c #D0D3BE",
"0. c #C3C3C3",
"q. c gray80",
"w. c #D4D6C3",
"e. c #D6D9C4",
"r. c #D8DAC7",
"t. c #D9DBCA",
"y. c #D4D4D4",
"u. c #DBDBDB",
"i. c #E2E2E2",
"p. c #ECECEC",
"a. c #F4F4F4",
"s. c #FEFEFE",
"d. c None",
/* pixels */
"d.d.d.d.d.d.d.d.d.d.  0 X.d.d.d.d.d.d.d.d.d.d.d.d.d.d.d.d.d.d.d.",
"d.d.d.d.d.d.d.d.d.d.  @ . d.d.d.d.d.d.d.d.d.d.d.d.d.d.d.d.d.d.d.",
"d.d.d.d.d.d.d.d.d.  @ @     d.d.d.d.d.d.d.d.d.d.d.d.d.d.d.d.d.d.",
"d.d.d.d.d.d.d.d.d.  1 X     d.d.d.d.d.d.d.d.d.d.d.d.d.d.d.d.d.d.",
"d.d.d.d.d.d.d.d.d.  .     + u ;             d.d.<.d.d.d.d.d.d.d.",
"d.d.d.d.d.d.d.d.d.O @   . r ) t . . + .         * 0 d.d.d.d.d.d.",
"d.d.d.d.d.d.d.d.d.X %   # h I E j y _ y       : %   d.d.d.d.d.d.",
"d.d.d.d.d.d.d.d.d.@ > 5 P | 4.5.] S g -       :     d.d.d.d.d.d.",
"d.d.d.d.d.d.d.d.d.. C $.2.:.&.#.} ( k = .     X .   d.d.d.d.d.d.",
"d.d.d.d.d.d.d.d.  a :.6.5.5.2.+.{ [ ^ k X   @ X       d.d.d.d.d.",
"d.d.d.d.d.      9 $.7.w.e.w.;.V O.} ` Y 2 X @         d.d.d.d.d.",
"d.d.d.d.. %     ..5.9.e.t.e.Q a #.} ` Y k #           d.d.d.d.d.",
"d.d.d.% B :   7 *.3.7.w.r.@.w m #.} ^ T A #         d.d.d.d.d.d.",
"d.d.: * %   o / &.:.6.7.>.N z D #.} ^ U A &         d.d.d.d.d.d.",
"d.d.X X     d { #.%.:.3.E 0 B D | ' ^ L k &         d.d.d.d.d.d.",
"d.d.@ $     Y ' | #.%.+.5 z C H [ ` U G k $         d.d.d.d.d.d.",
"d.1 % X   # Y ^ ' { { f 9 C m F ` Y L A s #         d.d.d.d.d.d.",
"d.X .   X p L U ^ ` J : z D x S Y L A j w o         d.d.d.d.d.d.",
"d.      1 7 k S L P 2 5 C N e A S A j s 5 . @       d.d.d.d.d.d.",
"O     $ * 4 h k A j * 0 C b 9 k k j s q :   @ .     d.d.d.d.d.d.",
"    . % . 2 w s s < < x c a 5 h s p 7 6 #   . X       d.d.d.d.d.",
"    % X   = 6 q 6 % 8 b z 0 3 w q 6 5 2 .     .     % d.d.d.d.d.",
"d.  @ X   # 3 3 : $ 9 z 0 > < 6 4 3 < @     X .     d.d.d.d.d.d.",
"d.  @     X < 2 % & 8 e 5 : > 3 < < = X     X       d.d.d.d.d.d.",
"d.  1       @ : @ @ > 3 : $ < > > : @ .           d.d.d.d.d.d.d.",
"d.  .         X   . # % O @ > : : @ X .         d.d.d.d.d.d.d.d.",
"d.d.d.d.                  $ * % .   X .         d.d.d.d.d.d.d.d.",
"d.d.d.d.d.                O .     X $         d.d.d.d.d.d.d.d.d.",
"d.d.d.d.d.d.                    . :           d.d.d.d.d.d.d.d.d.",
"d.d.d.d.d.d.d.                    X         d.d.d.d.d.d.d.d.d.d.",
"d.d.d.d.d.d.d.d.d.d..                   d.d.d.d.d.d.d.d.d.d.d.d.",
"d.d.d.d.d.d.d.d.d.d.d.d.X           d.d.d.d.d.d.d.d.d.d.d.d.d.d."
};
