/* XPM */
static char *riece-command-quit[] = {
/* columns rows colors chars-per-pixel */
"32 32 118 2",
"   c #000000",
".  c #060805",
"X  c #0C0C0B",
"o  c #0D110C",
"O  c #100E0D",
"+  c #121511",
"@  c #131811",
"#  c #181B17",
"$  c #1A1A19",
"%  c #192017",
"&  c #1D251A",
"*  c #21241F",
"=  c #20291D",
"-  c #232D20",
";  c #292E27",
":  c #2D2F2A",
">  c #263123",
",  c #293425",
"<  c #2B3728",
"1  c #2C3828",
"2  c #313D2D",
"3  c #3A3D36",
"4  c #33412F",
"5  c #354230",
"6  c #3B4B36",
"7  c #3E4D38",
"8  c #5D0000",
"9  c #650000",
"0  c #7D0000",
"q  c #45573F",
"w  c #464543",
"e  c #484744",
"r  c #4B4947",
"t  c #4D4C48",
"y  c #4D514A",
"u  c #4B5F45",
"i  c #504F4B",
"p  c #52514C",
"a  c #575653",
"s  c #5B5A56",
"d  c #4E6247",
"f  c #586F50",
"g  c #63625D",
"h  c #646360",
"j  c #686764",
"k  c #6D6B66",
"l  c #6E6E68",
"z  c #706F6B",
"x  c #73726D",
"c  c #767571",
"v  c #787673",
"b  c #7D7B74",
"n  c #7D7C7A",
"m  c #950000",
"M  c #990000",
"N  c #807F7D",
"B  c #B4736D",
"V  c #DB5132",
"C  c #E04D2B",
"Z  c #E1502F",
"A  c #E15434",
"S  c #E25A3C",
"D  c #DD5E41",
"F  c #DF6B51",
"G  c #C26A6A",
"H  c #C67171",
"J  c #E35F40",
"K  c #E46244",
"L  c #E56649",
"P  c #E5694D",
"I  c #E66D51",
"U  c #E67055",
"Y  c #83817B",
"T  c #89867E",
"R  c #BF877A",
"E  c #BB887B",
"W  c #C18A7D",
"Q  c #858481",
"!  c #888783",
"~  c #8D8B84",
"^  c #8D8D8A",
"/  c #908E89",
"(  c #94928C",
")  c #949391",
"_  c #9B9993",
"`  c #9D9C99",
"'  c #A19E98",
"]  c #BF9086",
"[  c #A3A19B",
"{  c #A8A69F",
"}  c #A7A5A1",
"|  c #A8A6A1",
" . c #ACAAA5",
".. c #AFADA8",
"X. c #B0AEA9",
"o. c #B3B1AC",
"O. c #B6B4B0",
"+. c #B8B6B1",
"@. c #BBB9B5",
"#. c #BEBDBA",
"$. c #BFC1BA",
"%. c #C18D82",
"&. c #C7A299",
"*. c #C0BFBA",
"=. c #EB9581",
"-. c #EC9985",
";. c #ED9D89",
":. c #EEA494",
">. c #C3C1BD",
",. c #C6C5C1",
"<. c #C8C6C2",
"1. c #CAC9C6",
"2. c #CDCCC9",
"3. c #D2D1CE",
"4. c #D4D3D0",
"5. c #D8D7D4",
"6. c #F4D1CA",
"7. c None",
/* pixels */
"7.7.7.7.7.7.7.7.7.                                            7.",
"7.7.7.7.7.7.7.7.7.7.7.7.7.7.7.7.7.7.7.7.7.7.7.7.7.7.7.7.7.7.7.  ",
"7.7.7.7.7.7.7.7.7.  $ $ + + O O X X X X X .                     ",
"7.7.7.7.7.7.7.  7.  #.} ^ n v l j g s i w w                     ",
"7.7.7.7.7.7.7.  7.  4.2.@.[ ) Q v z g g p i                     ",
"7.7.7.7.7.7.7.  7.  4.2.,.@. .' ^ N x z j s   .   .   . .       ",
"7.7.7.7.7.7.7.      4.2.1.>.+.X.} ` / Y c k . X X o X o o o     ",
"7.7.7.7.7.  7.      4.2.,.>.@.X.} ' / ~ Y b X + @ + + + @ @     ",
"7.7.7.7.7.  7.  &.+ ' 2.,.>.#.+...{ _ ( ~ T o % % % % % % &     ",
"7.7.7.7.7.  7.  W W O ( ,.>.@.+.X. .[ _ ( ~ o % % % % % & &     ",
"7.7.7.7.7.7.7.  -.C W O ) *.@.O.o. .[ [ [ ~ @ % % % % % % &     ",
"7.              -.Z C W . / @.O.X. .{ X.x x o % % % % % & &     ",
"7.  6.=.=.-.-.;.:.A S J %.$ Q O.X. .[ [ s r o % % % % % & &     ",
"7.  -.C C Z A A A J J J J %.X Q .. .' +.e p o % % % % % % &     ",
"7.  ;.Z A A S S J J L L P I ] X ! | ' g g Y o # % % # % % &     ",
"7.  ;.A A S S S K L L P I U F B   / _ / ( / @ & & & & & = =     ",
"7.  H M M M M M M M M M M M m 9   c [ [ _ ( @ & = & & & = =     ",
"7.  H M M M M M M M M M M M 8   v ( [ ' _ ( @ & & & & & = =     ",
"7.  H M M M M M M M M M m 8   c ( { { ` _ ( @ & & & & = = =     ",
"7.  G M M M M M M M M M 9   v ` | | { ' _ ( @ & & = & & = =     ",
"7.            0 M M m 9   n ` X.X. .{ ' _ ( @ & & & & & = =     ",
"7.X             M M 9   N ` O.O.o. .{ [ _ ( + = & & & & = -     ",
"7.              m 9   Q X.@.@.+.o. .| [ _ l @ = = = = = = >     ",
"7.              9   !  .#.,.#.@.o.X.| ( , * > > , > , , 1 1     ",
"7.                  o.<.1.<.#.@.X.[ 3 # , , , , , , , , 2 4     ",
"7.7.7.7.7.          1.2.1.,.#.O.y * > > > > > > > > > > 4 6     ",
"7.7.7.7.7.          4.3.1.,.h - = 2 2 2 2 2 1 4 2 2 2 2 7 q     ",
"7.7.7.7.7.7.        5.3._ 3 2 u q q q q q q q q q q q q d d     ",
"7.7.7.7.7.7.7.      $.y 2 f f f f f f f f f f f f f f f f f     ",
"7.7.7.7.7.7.7.      # o X o o o o o X o o o o o X o o o o o     ",
"7.7.7.7.7.7.7.                                                  ",
"7.7.7.7.7.7.7.7.                                                "
};
