/* XPM */
static char *riece_command_part[] = {
/* columns rows colors chars-per-pixel */
"24 24 108 2",
"   c #4F514E",
".  c #51524F",
"X  c #535550",
"o  c #535652",
"O  c #545552",
"+  c #545553",
"@  c #555653",
"#  c #545753",
"$  c #565753",
"%  c #555754",
"&  c #565754",
"*  c #565854",
"=  c #565954",
"-  c #575954",
";  c #565855",
":  c #575855",
">  c #565955",
",  c #575955",
"<  c #575A55",
"1  c #575A56",
"2  c #585955",
"3  c #585A55",
"4  c #585956",
"5  c #585A56",
"6  c #595A56",
"7  c #585B56",
"8  c #585A57",
"9  c #585B57",
"0  c #595B57",
"q  c #71726E",
"w  c #747672",
"e  c #757773",
"r  c #767874",
"t  c #777974",
"y  c #767875",
"u  c #777975",
"i  c #7A7B78",
"p  c #7A7C78",
"a  c #7D7F7A",
"s  c #7D7F7C",
"d  c #7F817D",
"f  c #81827E",
"g  c #80827F",
"h  c #828480",
"j  c #828481",
"k  c #838481",
"l  c #848582",
"z  c #858783",
"x  c #858784",
"c  c #868784",
"v  c #888A85",
"b  c #888986",
"n  c #888A86",
"m  c #898B86",
"M  c #898A87",
"N  c #8B8D8A",
"B  c #8C8E89",
"V  c #8C8D8A",
"C  c #8C8E8A",
"Z  c #8E8F8B",
"A  c #8E8F8C",
"S  c #8F8F8C",
"D  c #8F908C",
"F  c #8F918C",
"G  c #90928D",
"H  c #90928E",
"J  c #91928E",
"K  c #91938E",
"L  c #919390",
"P  c #929490",
"I  c #929590",
"U  c #939590",
"Y  c #939591",
"T  c #949691",
"R  c #949692",
"E  c #959792",
"W  c #959793",
"Q  c #969793",
"!  c #969893",
"~  c #979994",
"^  c #989A95",
"/  c #999B97",
"(  c #9A9B97",
")  c #9B9D99",
"_  c #9C9E9A",
"`  c #9E9F9B",
"'  c #A0A19D",
"]  c #A0A29D",
"[  c #A0A29E",
"{  c #A1A39F",
"}  c #A2A4A0",
"|  c #A4A6A1",
" . c #A8A9A5",
".. c #A9AAA6",
"X. c #A9ABA7",
"o. c #AAACA8",
"O. c #ABACA8",
"+. c #ABADA9",
"@. c #ACADA9",
"#. c #ACAEAA",
"$. c #ADAEAA",
"%. c #ADAEAB",
"&. c #AEAFAC",
"*. c #AEB0AC",
"=. c #AFB0AC",
"-. c #AEB0AD",
";. c #AFB1AE",
":. c None",
/* pixels */
":.:.:.:.:.:.:.:.:.:.:.:.:.:.:.:.:.:.:.:.:.:.:.:.",
":.:.:.:.:.:.:.:.:.:.:.:.:.:.:.:.:.:.:.:.:.:.:.:.",
":.:.:.:.:.:.:.:.:.:.:.:.:.:.:.:.:.:.:.:.:.:.:.:.",
":.:.:.:.:.:.:.:.:.:.:.:.:.:.:.:.:.:.:.:.:.:.:.:.",
":.:.:.:.:.9 7 7 :.:.:.:.:.:.:.:.6 0 8 :.:.:.:.:.",
":.:.:.:.9 D ;.L 4 :.:.:.:.:.:.3 J ;.L 8 :.:.:.:.",
":.:.:.:.5 -.F #.S 4 :.:.:.:.3 N +.G *.< :.:.:.:.",
":.:.:.:.1 x  .K @.A 5 :.:.3 V +.K  .x 1 :.:.:.:.",
":.:.:.:.:.1 M ..R %.Z 2 , C $.R ..M 1 :.:.:.:.:.",
":.:.:.:.:.:.1 n o.~ =.A C &.~ o.n 1 :.:.:.:.:.:.",
":.:.:.:.:.:.:.1 b O./ X.X./ O.b 1 :.:.:.:.:.:.:.",
":.:.:.:.:.:.:.:.> l | ^ ^ | c > :.:.:.:.:.:.:.:.",
":.:.:.:.:.:.:.:.: z { E E { j : :.:.:.:.:.:.:.:.",
":.:.:.:.:.:.:.4 k } T ] ] T } k 4 :.:.:.:.:.:.:.",
":.:.:.:.:.:.4 f ` G [ h g ' G ` f 4 :.:.:.:.:.:.",
":.:.:.:.:.4 a ( B _ d : ; s ) B ( a 4 :.:.:.:.:.",
":.:.:.:.< y W v ~ p : :.:., p ! v Q i $ :.:.:.:.",
":.:.:.:.- I v Y u $ :.:.:.:.% r U m P = :.:.:.:.",
":.:.:.:.+ e H w @ :.:.:.:.:.:.# q D t O :.:.:.:.",
":.:.:.:.:.o * . :.:.:.:.:.:.:.:.  & X :.:.:.:.:.",
":.:.:.:.:.:.:.:.:.:.:.:.:.:.:.:.:.:.:.:.:.:.:.:.",
":.:.:.:.:.:.:.:.:.:.:.:.:.:.:.:.:.:.:.:.:.:.:.:.",
":.:.:.:.:.:.:.:.:.:.:.:.:.:.:.:.:.:.:.:.:.:.:.:.",
":.:.:.:.:.:.:.:.:.:.:.:.:.:.:.:.:.:.:.:.:.:.:.:."
};
