/* XPM */
static char *riece_command_join[] = {
/* columns rows colors chars-per-pixel */
"24 24 204 2",
"   c #000000",
".  c #0C0600",
"X  c #040E05",
"o  c #040608",
"O  c #140A00",
"+  c #1A0E02",
"@  c #150F0C",
"#  c #0C130C",
"$  c #081B09",
"%  c #1C1105",
"&  c #14130F",
"*  c #1A120D",
"=  c #0D1215",
"-  c #0E1912",
";  c #0D131A",
":  c #141413",
">  c #1A1512",
",  c #121D13",
"<  c #181817",
"1  c #1D1D1D",
"2  c #261403",
"3  c #291704",
"4  c #2D1803",
"5  c #20150F",
"6  c #221B0F",
"7  c #341C04",
"8  c #3A1F05",
"9  c #231813",
"0  c #2A1D16",
"q  c #221E19",
"w  c #0D2B0E",
"e  c #132A14",
"r  c #17201D",
"t  c #17321B",
"y  c #3B240B",
"u  c #352E0C",
"i  c #33261F",
"p  c #39271C",
"a  c #31281A",
"s  c #171E27",
"d  c #191D20",
"f  c #1D2227",
"g  c #1C3227",
"h  c #182330",
"j  c #242323",
"k  c #292626",
"l  c #25282C",
"z  c #282C31",
"x  c #452505",
"c  c #432E0C",
"v  c #44380F",
"b  c #5B3107",
"n  c #452F1A",
"m  c #593615",
"M  c #653607",
"N  c #4C3A29",
"B  c #19401B",
"V  c #1D4D19",
"C  c #1C541C",
"Z  c #2F4328",
"A  c #3A422D",
"S  c #235023",
"D  c #225F21",
"F  c #216421",
"G  c #266A26",
"H  c #257A25",
"J  c #2B752C",
"K  c #277D29",
"L  c #2A7D2A",
"P  c #306D30",
"I  c #2F7D30",
"U  c #3D703D",
"Y  c #434512",
"T  c #575D19",
"R  c #7A440C",
"E  c #7F5A16",
"W  c #6A5432",
"Q  c #293B51",
"!  c #374756",
"~  c #3C4E5C",
"^  c #3A4E63",
"/  c #354F69",
"(  c #3B536C",
")  c #3D5772",
"_  c #3F5874",
"`  c #3F5A78",
"'  c #444444",
"]  c #4B4844",
"[  c #5B544A",
"{  c #437E44",
"}  c #6A665D",
"|  c #435467",
" . c #45586B",
".. c #405A74",
"X. c #45617E",
"o. c #4E667D",
"O. c #506375",
"+. c #52677C",
"@. c #726F64",
"#. c #646F7A",
"$. c #83490F",
"%. c #8A4C0E",
"&. c #934F0D",
"*. c #9B580F",
"=. c #A55C10",
"-. c #A95F13",
";. c #846218",
":. c #8E601B",
">. c #AC6011",
",. c #A26A1A",
"<. c #B66514",
"1. c #BE6A15",
"2. c #AB7625",
"3. c #B87B20",
"4. c #C3741C",
"5. c #CB7519",
"6. c #D17B1E",
"7. c #2B822B",
"8. c #2D882E",
"9. c #2F8930",
"0. c #318231",
"q. c #318F31",
"w. c #369736",
"e. c #438245",
"r. c #49844A",
"t. c #4C914E",
"y. c #74A975",
"u. c #C78523",
"i. c #CB8622",
"p. c #CD8D2B",
"a. c #D08A24",
"s. c #D18E28",
"d. c #D3922F",
"f. c #DA942B",
"g. c #D79733",
"h. c #DE9B33",
"j. c #DF9F3A",
"k. c #DFA03E",
"l. c #B68A46",
"z. c #B68C4B",
"x. c #969471",
"c. c #C09044",
"v. c #496583",
"b. c #4D6986",
"n. c #4F6B88",
"m. c #556C83",
"M. c #586E84",
"N. c #526E8B",
"B. c #54718E",
"V. c #5A7289",
"C. c #597591",
"Z. c #5D7996",
"A. c #607285",
"S. c #6F7A84",
"D. c #6F7F91",
"F. c #607C98",
"G. c #66829D",
"H. c #6C849B",
"J. c #748A9E",
"K. c #7C8A99",
"L. c #6884A0",
"P. c #6E8AA6",
"I. c #738EAA",
"U. c #7591AC",
"Y. c #7C93AB",
"T. c #899097",
"R. c #90989F",
"E. c #A7A294",
"W. c #B3AD98",
"Q. c #8D99A5",
"!. c #8296AA",
"~. c #899EB0",
"^. c #96A1AD",
"/. c #8FA0B2",
"(. c #9AACBD",
"). c #A0ABB7",
"_. c #CFC7A4",
"`. c #DBCAA3",
"'. c #D1C7AB",
"]. c #D3C8A9",
"[. c #DFD0A9",
"{. c #EBDEBF",
"}. c #A7B8C7",
"|. c #A9B8C6",
" X c #B8C3CC",
".X c #BAC5D1",
"XX c #C5C6C8",
"oX c gray80",
"OX c #DED9C6",
"+X c #CBD4DB",
"@X c #E3DEC9",
"#X c #EAE4CD",
"$X c #F1E8CE",
"%X c #E7E2D4",
"&X c #EFE6D0",
"*X c #F0E7D2",
"=X c #F1E8D5",
"-X c #F3EDD8",
";X c #D5DBE1",
":X c #E7E9EC",
">X c #F8F3E1",
",X c #F9F6EA",
"<X c #F2F3F4",
"1X c None",
/* pixels */
"1X1X1X1X1X1X1X1X1X1X1X1X1X@ > 9 5 1X1X1X1X1X1X1X",
"1X1X1X1X1X1X1X1X1X1X1X1XE.@X%X%XOX[ 1X1X1X1X1X1X",
"1X1X1X1X1X1X1X1X1X1X1X@.%X,X,X>X-X#X* 1X1X1X1X1X",
"1X1X1X1X1X1X          } -X*X=X&X{.$XW.p 1X1X1X1X",
"1X1X1X1X1X:   ] ] .   j W z.l.l.l.c.'.i 1X1X1X1X",
"1X1X1X1X1 o ] ' j       a k.j.j.g.d.[.0 1X1X1X1X",
"1X1X1X1X< O N O . % 2 7 6 h.h.h.d.p.`.> 1X1X1X1X",
"1X1X1X1X+ x 4.4.4.4.5.R % f.f.f.s.2.`.: 1X1X1X1X",
"1X1X1X1X4 b 6.6.6.6.5.R y s.f.f.u.:.].& 1X1X1X1X",
"1X1X1X1X7 -.5.5.5.5.5.<.y 3.a.i.,.v _.q 1X1X1X1X",
"1X1X1X1X8 *.1.$.2 4 %.<.c T ;.E Y V x.A # 1X1X1X",
"1X1X1X1X1Xx &.7 >.=.x M u F C S D D Z P r., 1X1X",
"1X1X1X1X= k m 7 7 7 3 n g B G y.t.L J I 0.e., 1X",
"1X1X1Xl R.~.S.q + * j #.| ~ - U w.q.9.7.7.7.e 1X",
"1X1Xz ).I.U.O.T.oXXXQ.D.m.M. .r { q.8.7.K H w 1X",
"1X: R.Y.P.P.V.K.<X:X}.Y.G.Z.o.! t 8.7.L H J $ 1X",
"1X: ^.G.G.L.V.A.:X+X(.Y..XH.N.b.= H K J G   X 1X",
"1Xd ~.Z.Z.F.F.+.+X.XG..X;X+Xb.X.=         1X1X1X",
"1Xf !.B.C.C.C.|  X|.C.N.n.v.X.` ; 1X1X1X1X1X1X1X",
"1Xs J.n.N.N.B.^ H./.n.b.v.X.) / o 1X1X1X1X1X1X1X",
"1X  h ) ) ) _ _ ..) ) ) ) ( ( Q   1X1X1X1X1X1X1X",
"1X1X                            1X1X1X1X1X1X1X1X",
"1X1X1X1X1X1X1X1X1X1X1X1X1X1X1X1X1X1X1X1X1X1X1X1X",
"1X1X1X1X1X1X1X1X1X1X1X1X1X1X1X1X1X1X1X1X1X1X1X1X"
};
