/* XPM */
static char *bug-buddy[] = {
/* columns rows colors chars-per-pixel */
"32 32 139 2",
"   c #1C1D1B",
".  c #1E201C",
"X  c #20221E",
"o  c #262E1F",
"O  c #323A12",
"+  c #242522",
"@  c #272824",
"#  c #2A2B26",
"$  c #2C2D29",
"%  c #2D3129",
"&  c #31342B",
"*  c #35392C",
"=  c #393C2D",
"-  c #343533",
";  c #363833",
":  c #3A3B36",
">  c #3A3B39",
",  c #3D412E",
"<  c #3F4235",
"1  c #3E413A",
"2  c #414532",
"3  c #42443E",
"4  c #464B36",
"5  c #484D36",
"6  c #494E3D",
"7  c #4C5431",
"8  c #4C533A",
"9  c #515A2D",
"0  c #50573D",
"q  c #51583F",
"w  c #65591F",
"e  c #444443",
"r  c #444840",
"t  c #494C45",
"y  c #4B4C4A",
"u  c #4C5344",
"i  c #505247",
"p  c #50544C",
"a  c #545B41",
"s  c #54584F",
"d  c #585B4E",
"f  c gray33",
"g  c #565951",
"h  c #595C54",
"j  c #5C5C5C",
"k  c #5A6246",
"l  c #5C6B4F",
"z  c #5C6256",
"x  c #606547",
"c  c #61664B",
"v  c #636B4B",
"b  c #616656",
"n  c #62655A",
"m  c #656854",
"M  c #68714D",
"N  c #6B7251",
"B  c #70735C",
"V  c #727955",
"C  c #777E59",
"Z  c #787D57",
"A  c #787D59",
"S  c #646464",
"D  c #6B6E62",
"F  c #6C6C6C",
"G  c #717468",
"H  c #747473",
"J  c #777877",
"K  c #787A73",
"L  c #7B7B7B",
"P  c #7B825B",
"I  c #80865E",
"U  c #918656",
"Y  c #9C954F",
"T  c #949658",
"R  c #858B63",
"E  c #808B68",
"W  c #888F65",
"Q  c #80817E",
"!  c #8E946B",
"~  c #869675",
"^  c #91986D",
"/  c #969C72",
"(  c #989F75",
")  c #9A9F7A",
"_  c #9CA37A",
"`  c #A0A67D",
"'  c #A5AA7F",
"]  c #838383",
"[  c #878986",
"{  c #8B8C84",
"}  c #8C8C8C",
"|  c #9A9F89",
" . c #919191",
".. c gray62",
"X. c #A2A588",
"o. c #A4AB84",
"O. c #A1A495",
"+. c #A1A29F",
"@. c #A8AC91",
"#. c #ACB18B",
"$. c #B0B690",
"%. c #B5B996",
"&. c #B5B99B",
"*. c #B8BC9C",
"=. c #A3A3A3",
"-. c #ACACAC",
";. c #B4B7A3",
":. c #B4B6A8",
">. c #BDBFA5",
",. c #BBBEAC",
"<. c #B3B3B3",
"1. c #BABBB7",
"2. c #BABBBA",
"3. c #BFC1A8",
"4. c #C2C4AC",
"5. c #C5CBAD",
"6. c #CAC6AF",
"7. c #C3C7B1",
"8. c #C5CAB2",
"9. c #C8CCB5",
"0. c #CED1BC",
"q. c #D1D3BE",
"w. c #C3C3C3",
"e. c #CDCDC4",
"r. c #CCCCCC",
"t. c #D2D5C3",
"y. c #D6D8C4",
"u. c #D9D6C4",
"i. c #D9DBC9",
"p. c #D1D1D1",
"a. c #D9D9D7",
"s. c #DCDCDC",
"d. c #E2E2DF",
"f. c #E8E5DA",
"g. c #E3E3E3",
"h. c #ECECEB",
"j. c #F3F3F3",
"k. c #FEFEFE",
"l. c None",
/* pixels */
"l.l.l.l.l.l.l.l.l.l.l.k.k.l.l.l.l.l.l.l.l.l.l.l.l.l.l.l.l.l.l.l.",
"l.l.l.l.l.l.l.l.l.l.k.r.h.l.l.l.l.l.l.l.l.l.l.l.l.l.l.l.l.l.l.l.",
"l.l.l.l.l.l.l.l.l.k.p.] g.k.l.l.l.l.l.l.l.l.l.l.l.l.l.l.l.l.l.l.",
"l.l.l.l.l.l.l.l.l.j.} } g.k.l.l.l.l.l.l.l.l.l.l.l.l.l.l.l.l.l.l.",
"l.l.l.l.l.l.l.l.l.h.J =.g.f.u.8.g.k.k.k.k.l.l.l.k.l.l.l.l.l.l.l.",
"l.l.l.l.l.l.l.l.l.g.j } 2.U Y w J a.e.h.j.k.l.l.h.k.l.l.l.l.l.l.",
"l.l.l.l.l.l.l.l.l.p.e H { c B B u 7 T A r.h.k.r.1.k.l.l.l.l.l.l.",
"l.l.l.l.l.l.l.l.l.r.: K | #.5.8.~ l 9 O L g.h.<.=.k.l.l.l.l.l.l.",
"l.l.l.l.l.l.l.l.l.g.D ;.4.3.%.#.X.P a o H w.g.=.[ j.l.l.l.l.l.l.",
"l.l.l.l.l.l.l.l.k.d.7.9.9.8.3.X._ / C k [ -.-.Q 2.s.k.l.l.l.l.l.",
"l.l.l.l.l.l.k.l.h.q.0.y.y.0.;.h o._ R A G F - J ..r.k.l.l.l.l.l.",
"l.l.l.l.j.p...2.t.9.0.i.i.y.K r #._ W A k + > F -.h.l.l.l.l.l.l.",
"l.l.l.j.=.y 3 n *.4.q.y.i.O.1 s $._ R C x > f ] s.k.l.l.l.l.l.l.",
"l.l.j.-.H ] =.@.*.4.7.0.,.g t z #._ I V x t S =.h.k.l.l.l.l.l.l.",
"l.l.w.H ..1.:._ #.%.4.4.D > g n ' ! P M k i H 1.h.k.l.l.l.l.l.l.",
"l.l.r.F -.g.X.! _ #.%.X.& t h m / R C M a f Q 1.g.k.l.l.l.l.l.l.",
"l.l.2.J 1.1.P I ! ( ) 8 1 h p m R A M k 8 h [ <.h.j.l.l.l.l.l.l.",
"l.k.a.<.2.G M V P W N @ t z u c Z N k 8 4 e ] <.g.j.l.l.l.l.l.l.",
"l.k.j.h.K 2 a v N V % - h g 3 k v k q 5 3 $ >  .g.k.l.l.l.l.l.l.",
"l.k.j.w.y 6 8 q k 8 + 1 h p < q a 8 4 2 1 e - f s.j.l.l.l.l.l.l.",
"l.j.s.] ] s 2 5 8 $ # y p 3 * 8 4 4 , = r j j e r.k.l.l.l.l.l.l.",
"l.k.=.H =.n = , * . ; p t 1 % 2 , = & * y F L e -.g.k.l.l.l.l.l.",
"l.k. .j 1.Q % * X   > t > $ # * & % % # j Q S S 1.g.l.l.l.l.l.l.",
"l.l. .L r.1.; % X . ; 3 - + # & % % @ . j  . .-.s.k.l.l.l.l.l.l.",
"l.k.=.w.h.s.H 3 e   $ $ +   $ $ $ $ $ @ S -.s.h.k.l.l.l.l.l.l.l.",
"l.k.g.j.k.h.w.] L y $ $ + $ $ $ $ e e > F 2.j.k.l.l.l.l.l.l.l.l.",
"l.l.l.l.l.j.g.p.-.} H j f - & > j L S S L r.k.l.l.l.l.l.l.l.l.l.",
"l.l.l.l.l.k.k.h.p.1...} F j S H }  .S L  .r.k.l.l.l.l.l.l.l.l.l.",
"l.l.l.l.l.l.l.k.j.j.s.r.<.<.-.<.<.F S ..1.g.l.l.l.l.l.l.l.l.l.l.",
"l.l.l.l.l.l.l.l.k.j.j.h.g.s.s.s.<.H w.a.h.k.l.l.l.l.l.l.l.l.l.l.",
"l.l.l.l.l.l.l.l.l.l.l.k.k.k.k.j.a.p.k.k.l.l.l.l.l.l.l.l.l.l.l.l.",
"l.l.l.l.l.l.l.l.l.l.l.l.l.l.k.k.j.k.l.l.l.l.l.l.l.l.l.l.l.l.l.l."
};
