/* XPM */
static char *riece_command_next_channel[] = {
/* columns rows colors chars-per-pixel */
"24 24 133 2",
"   c black",
".  c gray2",
"X  c #0E0E0E",
"o  c gray12",
"O  c #282828",
"+  c gray22",
"@  c #676359",
"#  c gray38",
"$  c #6A6763",
"%  c #72706C",
"&  c #817D74",
"*  c #8B867D",
"=  c #838381",
"-  c #848381",
";  c #9B958A",
":  c #9B968A",
">  c #9D978B",
",  c #9D978C",
"<  c #9E988D",
"1  c #9F998D",
"2  c #999891",
"3  c gray62",
"4  c #A19B8F",
"5  c #A19B90",
"6  c #A19C90",
"7  c #A29C90",
"8  c #A39D91",
"9  c #A39D92",
"0  c #A39E92",
"q  c #A49E93",
"w  c #A4A4A3",
"e  c gray67",
"r  c #AFAFAE",
"t  c #B2B1AF",
"y  c #B2B1B0",
"u  c #B3B2B0",
"i  c gray70",
"p  c #B5B4B3",
"a  c #B6B6B4",
"s  c #B9B7B6",
"d  c #BABAB8",
"f  c #BCBBBA",
"g  c #BEBDBD",
"h  c #C4C3C0",
"j  c #CACAC8",
"k  c #CDCDCD",
"l  c #D5D3CE",
"z  c gray82",
"x  c LightGray",
"c  c #D7D5D1",
"v  c #D7D6D1",
"b  c #D4D4D3",
"n  c #D8D6D1",
"m  c #D8D6D2",
"M  c #D9D7D3",
"N  c #DBD9D5",
"B  c #DCDAD6",
"V  c #DCDBD7",
"C  c #DDDBD7",
"Z  c #DCDAD8",
"A  c #DDDCD8",
"S  c #DEDCD8",
"D  c #DEDDD9",
"F  c #DFDEDA",
"G  c #E0DEDA",
"H  c #E0DFDB",
"J  c #E1DFDB",
"K  c #E1DFDC",
"L  c #E1E0DC",
"P  c #E1E0DD",
"I  c #E2E0DD",
"U  c #E2E1DD",
"Y  c #E0E0DF",
"T  c #E2E1DE",
"R  c #E2E1DF",
"E  c #E3E2DE",
"W  c #E3E2DF",
"Q  c #E4E2DF",
"!  c #E4E3DF",
"~  c #E4E3E0",
"^  c #E5E4E0",
"/  c #E5E4E1",
"(  c #E6E4E1",
")  c #E5E4E2",
"_  c #E5E5E2",
"`  c #E6E5E2",
"'  c #E7E5E2",
"]  c #E7E6E3",
"[  c #E4E4E4",
"{  c #E7E7E7",
"}  c #E8E7E4",
"|  c #E8E7E5",
" . c #E9E8E5",
".. c #E9E8E6",
"X. c #E9E9E9",
"o. c #EBEAE8",
"O. c #ECEBE9",
"+. c #EDECEA",
"@. c #EDEDEB",
"#. c #EEEDEB",
"$. c gray93",
"%. c #EFEEEC",
"&. c #EFEFED",
"*. c #EEEEEE",
"=. c #EFEFEE",
"-. c #F0EFED",
";. c #F0F0EE",
":. c #F1F0EE",
">. c #F1F0EF",
",. c gray94",
"<. c #F2F2F0",
"1. c #F3F2F1",
"2. c #F3F3F1",
"3. c gray95",
"4. c #F4F3F2",
"5. c #F5F4F3",
"6. c #F5F5F3",
"7. c #F4F4F4",
"8. c #F6F5F4",
"9. c #F6F6F4",
"0. c #F7F6F5",
"q. c #F6F6F6",
"w. c #F8F7F6",
"e. c #F8F8F7",
"r. c #F9F9F8",
"t. c #F9F9F9",
"y. c #FAFAF9",
"u. c #FBFBFB",
"i. c #FCFCFB",
"p. c #FDFDFD",
"a. c #FEFEFE",
"s. c gray100",
"d. c None",
/* pixels */
"d.d.d.d.d.d.d.d.d.d.d.d.d.d.d.d.d.d.d.d.d.d.d.d.",
"d.d.d.                          X O # d.d.d.d.d.",
"d.d.  x q.s.s.s.s.s.s.s.s.t.r.r.{ [ k o d.d.d.d.",
"d.d.  q.s.s.s.s.s.s.s.s.s.s.r.=.r X.s.i + d.d.d.",
"d.d.  s.s.s.s.s.s.s.a.s.a.p.r.*.w ,.s.7.e . d.d.",
"d.d.  s.s.s.s.s.a.p.i.p.i.u.r.3.3           d.d.",
"d.d.  s.s.s.a.p.i.u.y.u.y.r.r.7.b s = - $   d.d.",
"d.d.  s.a.p.i.u.y.r.e.r.e.w.r.1.Y Z j a %   d.d.",
"d.d.  s.i.u.y.r.e.w.  g 0.9.4.>.-.-.) h &   d.d.",
"d.d.  s.y.r.e.w.0.9.    f 4.4.4.4.o.K K *   d.d.",
"d.d.  s.e.w.0.9.5.4.      d &.#.@._ K K q   d.d.",
"d.d.  s.8.6.4.4.2.<.        a O.] R ~ K q   d.d.",
"d.d.  s.4.1.<.;.&.:.          y / ~ T K q   d.d.",
"d.d.  s.4.1.<.;.&.:.        p | / ~ T K q   d.d.",
"d.d.  s.;.&.&.%.#.+.      p } ] W I L H 6   d.d.",
"d.d.  s.@.+.O.O.O.o.    u  ./ ( E F D A 5   d.d.",
"d.d.  s.o.....| } }   t ] ' ! E H D A V 5   d.d.",
"d.d.  s.] ` ` ` / ( ^ ( ^ ! U H D V N M 1   d.d.",
"d.d.  t.~ W E Q ! U E U E L L D C B M m <   d.d.",
"d.d.  $.P K L H U H L H L F G C B M n c >   d.d.",
"d.d.  z J G F D H D G D G S S B B m v l ;   d.d.",
"d.d.  2 0 q 9 8 9 6 7 6 7 4 5 1 1 , , : @   d.d.",
"d.d.d.                                    d.d.d.",
"d.d.d.d.d.d.d.d.d.d.d.d.d.d.d.d.d.d.d.d.d.d.d.d."
};
