/* XPM */
static char *riece_command_part[] = {
/* columns rows colors chars-per-pixel */
"24 24 115 2",
"   c black",
".  c #010101",
"X  c #020202",
"o  c #040404",
"O  c #070404",
"+  c #060606",
"@  c #070707",
"#  c #080403",
"$  c #0D0705",
"%  c #0E0806",
"&  c gray3",
"*  c #090909",
"=  c gray4",
"-  c #0B0B0B",
";  c #0D0A08",
":  c #100401",
">  c #190603",
",  c #1F0703",
"<  c #1B0704",
"1  c #1B0804",
"2  c #180906",
"3  c #1F0A07",
"4  c #1D0F0C",
"5  c #220905",
"6  c #2C0B05",
"7  c #2F0E07",
"8  c #230C08",
"9  c #2B0D08",
"0  c #280E0A",
"q  c #320D06",
"w  c #24100C",
"e  c #24100D",
"r  c #24110E",
"t  c #2A120D",
"y  c #2B130E",
"u  c #2F1510",
"i  c #2D1714",
"p  c #311712",
"a  c #3B1711",
"s  c #371813",
"d  c #301914",
"f  c #331914",
"g  c #3C1812",
"h  c #381B16",
"j  c #3D1D17",
"k  c #49160C",
"l  c #4E160D",
"z  c #411710",
"x  c #4C1B13",
"c  c #4E1D14",
"v  c #422019",
"b  c #572119",
"n  c #5C251B",
"m  c #652419",
"M  c #822617",
"N  c #822618",
"B  c #922C1B",
"V  c #912F1E",
"C  c #922F1E",
"Z  c #962E1C",
"A  c #992F1D",
"S  c #94301E",
"D  c #96311E",
"F  c #98311E",
"G  c #A13521",
"H  c #AD3620",
"J  c #A23A26",
"K  c #B03720",
"L  c #B23821",
"P  c #B43922",
"I  c #B63922",
"U  c #B73922",
"Y  c #B43A23",
"T  c #B63D26",
"R  c #B93A22",
"E  c #BA3A22",
"W  c #BA3B22",
"Q  c #BB3B22",
"!  c #BC3B22",
"~  c #BD3B22",
"^  c #BE3B22",
"/  c #BF3B22",
"(  c #B93B24",
")  c #B83E27",
"_  c #BD3C24",
"`  c #BD3D25",
"'  c #BE3F27",
"]  c #BD3F28",
"[  c #C03B22",
"{  c #C23B22",
"}  c #AD4632",
"|  c #C24129",
" . c #C2462F",
".. c #C34C36",
"X. c #C24D36",
"o. c #C44D36",
"O. c #C64D37",
"+. c #C84E37",
"@. c #CE523A",
"#. c #B45B4A",
"$. c #B06354",
"%. c #C95641",
"&. c #D05F49",
"*. c #D3634E",
"=. c #CE6653",
"-. c #C16E5E",
";. c #CA6D5B",
":. c #D66F5B",
">. c #D9705B",
",. c #CC7261",
"<. c #CD7261",
"1. c #CB7868",
"2. c #D17F70",
"3. c #DD8D7D",
"4. c None",
/* pixels */
"4.4.4.4.4.4.4.4.4.4.4.4.4.4.4.4.4.4.4.4.4.4.4.4.",
"4.4.4.4.4.4.4.4.4.4.4.4.4.4.4.4.4.4.4.4.4.4.4.4.",
"4.4.4.4.4.4.4.4.4.4.4.4.4.4.4.4.4.4.4.4.4.4.4.4.",
"4.4.4.4.4.4.4.4.4.4.4.4.4.4.4.4.4.4.4.4.4.4.4.4.",
"4.4.4.4.4.v h - 4.4.4.4.4.4.4.4.4.. o 4.4.4.4.4.",
"4.4.4.4.p 3.&.c - 4.4.4.4.4.4.4.i -.} # 4.4.4.4.",
"4.4.4.4.j *.%.O.x = 4.4.4.4.4.d >.| Z : 4.4.4.4.",
"4.4.4.4.; ..[ / o.m * 4.4.4.4 :.( B l   4.4.4.4.",
"4.4.4.4.4.u ..^ ^ ..n & 4.$ ;.) M 6   4.4.4.4.4.",
"4.4.4.4.4.4.t ..~ ! L a o $. .N > . 4.4.4.4.4.4.",
"4.4.4.4.4.4.4.y ..Q W U #.@.A , . 4.4.4.4.4.4.4.",
"4.4.4.4.4.4.4.@ g ..E E +.I 7 . 4.4.4.4.4.4.4.4.",
"4.4.4.4.4.4.4.4.. k =._ E E L g + 4.4.4.4.4.4.4.",
"4.4.4.4.4.4.4.4.q 2.' T U W Q P y 4.4.4.4.4.4.4.",
"4.4.4.4.4.4.4.< 1.] C & a X.! ~ K t 4.4.4.4.4.4.",
"4.4.4.4.4.4.s 1.( D 3 4.@ a ..^ ^ Y r 4.4.4.4.4.",
"4.4.4.4.  b ,.R Z 8 . 4.4.* z o./ [ J O 4.4.4.4.",
"4.4.4.4.5 <.` F 0 X 4.4.4.4.- x O.{ H w 4.4.4.4.",
"4.4.4.4.% V S 2 o 4.4.4.4.4.4.= c +.G e 4.4.4.4.",
"4.4.4.4.4.9 1 o 4.4.4.4.4.4.4.4.= f p @ 4.4.4.4.",
"4.4.4.4.4.4.4.4.4.4.4.4.4.4.4.4.4.4.. 4.4.4.4.4.",
"4.4.4.4.4.4.4.4.4.4.4.4.4.4.4.4.4.4.4.4.4.4.4.4.",
"4.4.4.4.4.4.4.4.4.4.4.4.4.4.4.4.4.4.4.4.4.4.4.4.",
"4.4.4.4.4.4.4.4.4.4.4.4.4.4.4.4.4.4.4.4.4.4.4.4."
};
