/* XPM */
static char *riece_command_list_addons[] = {
/* columns rows colors chars-per-pixel */
"24 24 76 1",
"  c #2E3436",
". c #343A3B",
"X c #414646",
"o c #4D5252",
"O c #555753",
"+ c #5A5E5D",
"@ c #676A68",
"# c #737673",
"$ c #80827E",
"% c #868984",
"& c #888A85",
"* c #898B86",
"= c #898C87",
"- c #8D908B",
"; c #8F928C",
": c #BABDB6",
"> c gray78",
", c #C8C8C8",
"< c gray79",
"1 c #CACBC9",
"2 c #CACACA",
"3 c #CBCBCB",
"4 c gray80",
"5 c #CDCDCD",
"6 c #CECFCD",
"7 c #CECECE",
"8 c gray81",
"9 c #D0D0D0",
"0 c gray82",
"q c #D2D2D2",
"w c LightGray",
"e c #D5D5D5",
"r c gray86",
"t c gainsboro",
"y c #DDDDDD",
"u c gray87",
"i c #DFDFDF",
"p c gray88",
"a c #E1E1E0",
"s c #E1E1E1",
"d c #E2E2E1",
"f c #E2E2E2",
"g c #E3E3E2",
"h c gray89",
"j c #E4E4E3",
"k c #E4E4E4",
"l c #E5E5E4",
"z c gray90",
"x c #E6E6E5",
"c c #E7E7E6",
"v c #E8E8E6",
"b c #E8E8E7",
"n c #E9E9E7",
"m c #E9E9E8",
"M c #EAEAE8",
"N c #EAEAE9",
"B c #EBEBE9",
"V c #EBEBEA",
"C c #ECECEA",
"Z c #ECECEB",
"A c #EFEFEF",
"S c gray94",
"D c #F1F1F1",
"F c gray95",
"G c #F3F3F2",
"H c #F3F3F3",
"J c #F4F4F4",
"K c #F5F5F4",
"L c gray96",
"P c #F6F6F5",
"I c #F6F6F6",
"U c #F7F7F6",
"Y c gray97",
"T c #FEFEFE",
"R c gray100",
"E c None",
/* pixels */
"EEEEEEEEEEEEEEEEEEEEEEEE",
"EEEEEEEEEEEEEEEEEEEEEEEE",
"EEEEEEEEEEEEEEEEEEEEEEEE",
"EE-*&&&&&&&&&&&&&&&*-EEE",
"E;6LUUIPPLLKJJHHHHHD1;EE",
"E*LZVBNMnbcxljhfsppsD*EE",
"E&UVOOOOOmbcxljhfsppH&EE",
"E&UBORRROM   xl   spH&EE",
"E&INO:::OB...cx...daH&EE",
"E&PmOOOOOBXXXcOOOOOsH&EE",
"E&LbmoooCBooobORRROfH&EE",
"E&Lcb+++BB+++bO:::OgH&EE",
"E&Lxc@@@MM@@@bOOOOOhH&EE",
"E&Hlx###nOOOOOv###khG&EE",
"E&Fjl$$$cORRROc$$$ljF&EE",
"E&Dgj&&&xO:::Oc&&&ljD&EE",
"E&SdghjllOOOOOxxxlljD&EE",
"E&IdsfgjjllzxxxxllklY&EE",
"E&HTRRRRRRRRRRRRRRRTA&EE",
"E*zewq0988754322<,>,u*EE",
"E=8hkhffspppiiuyyytr2=EE",
"EE%*&&&&&&&&&&&&&&&*%EEE",
"EEEEEEEEEEEEEEEEEEEEEEEE",
"EEEEEEEEEEEEEEEEEEEEEEEE"
};
