/* XPM */
static char * right_xpm[] = {
"32 32 32 1",
" 	c #000200",
".	c #090A06",
"+	c #111310",
"@	c #191A18",
"#	c #212220",
"$	c #282827",
"%	c #2E2F2E",
"&	c #363835",
"*	c #3E403D",
"=	c #464845",
"-	c #4D4E4C",
";	c #535453",
">	c #5B5D5A",
",	c #636562",
"'	c #6A6C6A",
")	c #828100",
"!	c #747573",
"~	c #8A8903",
"{	c #7C7D7B",
"]	c #939214",
"^	c #9A970C",
"/	c #9EA119",
"(	c #A9AB27",
"_	c #B4B532",
":	c #C1C13F",
"<	c #CDCD4B",
"[	c #D8D855",
"}	c #CACCC9",
"|	c #E3E25F",
"1	c #F0EE6B",
"2	c #FDFA77",
"3	c #FEFFFC",
"                                ",
"                                ",
"                                ",
"                                ",
"                                ",
"                     }          ",
"                    },}         ",
"                    }>'}        ",
"                    }>>;}       ",
"                    };,;;}      ",
"   }}}}}}}}}}}}}}}}}}[;>;;}     ",
"  }[<[<;;;;<<<[;;;;[<<<;;;;}    ",
"  };<<<<---;<<<<----<<<<---;}   ",
"  }=-<<<:-=--:<:<==--<<<:----}  ",
"  }***::::=*==::::=**=::::***-} ",
"  }*=*=::::****::::=***::::****}",
"  }:****:_::****:_::****::::***}",
"  }__&&*%:___&&&&____&&*%____&} ",
"  }___%&&&____&&&&____%&&&___}  ",
"  }(___%%%%(___%%%%(___%&%%(}   ",
"  }%(((_%%%%((((%%%%((((%%%}    ",
"   }}}}}}}}}}}}}}}}}}(((($}     ",
"                    }#/](}      ",
"                    }#$]}       ",
"                    }@#}        ",
"                    }@}         ",
"                     }          ",
"                                ",
"                                ",
"                                ",
"                                ",
"                                "};
