/* XPM */
static char *riece_command_previous_channel[] = {
/* columns rows colors chars-per-pixel */
"24 24 133 2",
"   c black",
".  c gray2",
"X  c #0E0E0E",
"o  c gray12",
"O  c #282828",
"+  c gray22",
"@  c #676359",
"#  c gray38",
"$  c #6A6763",
"%  c #72706C",
"&  c #817D74",
"*  c #8B867D",
"=  c #838381",
"-  c #848381",
";  c #9B958A",
":  c #9B968A",
">  c #9D978B",
",  c #9D978C",
"<  c #9E988D",
"1  c #9F998D",
"2  c #999891",
"3  c gray62",
"4  c #A19B8F",
"5  c #A19B90",
"6  c #A19C90",
"7  c #A29C90",
"8  c #A39D91",
"9  c #A39D92",
"0  c #A39E92",
"q  c #A49E93",
"w  c #A4A4A3",
"e  c gray67",
"r  c #AFAFAE",
"t  c #B1B0AE",
"y  c gray70",
"u  c #B4B3B2",
"i  c #B6B5B3",
"p  c #B6B6B4",
"a  c #B7B7B6",
"s  c #B9B7B6",
"d  c #B9B8B6",
"f  c #BABAB8",
"g  c #BABAB9",
"h  c #BDBDBB",
"j  c #BDBDBC",
"k  c #C4C3C0",
"l  c #CACAC8",
"z  c #CDCDCD",
"x  c #D5D3CE",
"c  c gray82",
"v  c LightGray",
"b  c #D7D5D1",
"n  c #D7D6D1",
"m  c #D4D4D3",
"M  c #D8D6D1",
"N  c #D8D6D2",
"B  c #D9D7D3",
"V  c #DBD9D5",
"C  c #DCDAD6",
"Z  c #DCDBD7",
"A  c #DDDBD7",
"S  c #DCDAD8",
"D  c #DDDCD8",
"F  c #DEDCD8",
"G  c #DEDDD9",
"H  c #DFDEDA",
"J  c #E0DEDA",
"K  c #E0DFDB",
"L  c #E1DFDB",
"P  c #E1DFDC",
"I  c #E1E0DC",
"U  c #E1E0DD",
"Y  c #E2E0DD",
"T  c #E2E1DD",
"R  c #E0E0DF",
"E  c #E2E1DE",
"W  c #E2E1DF",
"Q  c #E3E2DE",
"!  c #E3E2DF",
"~  c #E4E2DF",
"^  c #E4E3DF",
"/  c #E4E3E0",
"(  c #E5E4E0",
")  c #E5E4E1",
"_  c #E6E4E1",
"`  c #E5E4E2",
"'  c #E5E5E2",
"]  c #E6E5E2",
"[  c #E7E6E3",
"{  c #E4E4E4",
"}  c #E7E7E7",
"|  c #E8E7E4",
" . c #E8E7E5",
".. c #E9E8E5",
"X. c #E9E8E6",
"o. c #E9E9E9",
"O. c #EBEAE8",
"+. c #ECEBE9",
"@. c #EDECEA",
"#. c #EDEDEB",
"$. c #EEEDEB",
"%. c gray93",
"&. c #EFEEEC",
"*. c #EFEFED",
"=. c #EEEEEE",
"-. c #EFEFEE",
";. c #F0EFED",
":. c #F0F0EE",
">. c #F1F0EF",
",. c gray94",
"<. c #F2F2F0",
"1. c #F3F2F1",
"2. c #F3F3F1",
"3. c gray95",
"4. c #F4F3F2",
"5. c #F5F4F3",
"6. c #F5F5F3",
"7. c #F4F4F4",
"8. c #F6F5F4",
"9. c #F6F6F4",
"0. c #F7F6F5",
"q. c #F6F6F6",
"w. c #F8F7F6",
"e. c #F8F8F7",
"r. c #F9F9F8",
"t. c #F9F9F9",
"y. c #FAFAF9",
"u. c #FBFBFB",
"i. c #FCFCFB",
"p. c #FDFDFD",
"a. c #FEFEFE",
"s. c gray100",
"d. c None",
/* pixels */
"d.d.d.d.d.d.d.d.d.d.d.d.d.d.d.d.d.d.d.d.d.d.d.d.",
"d.d.d.                          X O # d.d.d.d.d.",
"d.d.  v q.s.s.s.s.s.s.s.s.t.r.r.} { z o d.d.d.d.",
"d.d.  q.s.s.s.s.s.s.s.s.s.s.r.-.r o.s.y + d.d.d.",
"d.d.  s.s.s.s.s.s.s.a.s.a.p.r.=.w ,.s.7.e . d.d.",
"d.d.  s.s.s.s.s.a.p.i.p.i.u.r.3.3           d.d.",
"d.d.  s.s.s.a.p.i.u.y.u.y.r.r.7.m s = - $   d.d.",
"d.d.  s.a.p.i.u.y.r.e.r.e.w.r.1.R S l p %   d.d.",
"d.d.  s.i.u.y.r.e.w.0.w.j   4.>.;.;.` k &   d.d.",
"d.d.  s.y.r.e.w.0.9.5.h     4.4.4.O.P P *   d.d.",
"d.d.  s.e.w.0.9.5.4.g       *.$.#.' P P q   d.d.",
"d.d.  s.8.6.4.4.2.f         $.+.[ W / P q   d.d.",
"d.d.  s.4.1.<.:.a           +. .) / E P q   d.d.",
"d.d.  s.4.1.<.:.*.d         +. .) / E P q   d.d.",
"d.d.  s.:.*.*.&.$.@.i       | [ ! Y I K 6   d.d.",
"d.d.  s.#.@.+.+.+.O...u     ) _ Q H G D 5   d.d.",
"d.d.  s.O.X.X. .| | [ | t   ^ Q K G D Z 5   d.d.",
"d.d.  s.[ ] ] ] ) _ ( _ ( ^ T K G Z V B 1   d.d.",
"d.d.  t./ ! Q ~ ^ T Q T Q I I G A C B N <   d.d.",
"d.d.  %.U P I K T K I K I H J A C B M b >   d.d.",
"d.d.  c L J H G K G J G J F F C C N n x ;   d.d.",
"d.d.  2 0 q 9 8 9 6 7 6 7 4 5 1 1 , , : @   d.d.",
"d.d.d.                                    d.d.d.",
"d.d.d.d.d.d.d.d.d.d.d.d.d.d.d.d.d.d.d.d.d.d.d.d."
};
